<svg xmlns:xlink="http://www.w3.org/1999/xlink" xmlns="http://www.w3.org/2000/svg" width="72" height="73" viewBox="0 0 72 73" fill="none">
<path fill-rule="evenodd" clip-rule="evenodd" d="M37.9997 66.01C53.9977 52.4718 61.9967 40.9163 61.9967 31.3433C62.206 20.1963 52.3139 14.01 37.9997 14.01C23.6854 14.01 14.0037 20.0918 14 31.3433C14 40.9163 21.9999 52.4718 37.9997 66.01Z" fill="#D9F2EA"/>
<path d="M34.3447 44.9133C34.3447 46.9844 32.6658 48.6633 30.5947 48.6633C28.5237 48.6633 26.8447 46.9844 26.8447 44.9133C26.8447 42.8423 28.5237 41.1633 30.5947 41.1633C32.6658 41.1633 34.3447 42.8423 34.3447 44.9133Z" fill="#008558"/>
<path fill-rule="evenodd" clip-rule="evenodd" d="M7.00347 22.3889C6.3843 22.9393 6.32853 23.8874 6.8789 24.5066C7.42907 25.1255 8.37666 25.1815 8.99585 24.6318L9.00943 24.6199C9.02232 24.6087 9.04374 24.5903 9.07357 24.565C9.13323 24.5145 9.22647 24.4369 9.35219 24.3359C9.60368 24.134 9.98471 23.8393 10.4865 23.4824C11.4908 22.7683 12.9742 21.8087 14.8668 20.8474C18.6564 18.9225 24.0475 17.01 30.5 17.01C36.9526 17.01 42.3436 18.9225 46.1332 20.8474C48.0258 21.8087 49.5093 22.7683 50.5135 23.4824C51.0153 23.8393 51.3963 24.134 51.6478 24.3359C51.7736 24.4369 51.8668 24.5145 51.9265 24.565C51.9563 24.5903 51.9777 24.6087 51.9906 24.6199L52.0035 24.6311C52.6227 25.1808 53.571 25.1255 54.1211 24.5066C54.6715 23.8874 54.6157 22.9393 53.9966 22.3889L53.9834 22.3773L53.9956 22.3881L53.9945 22.3871L53.9916 22.3845L53.9834 22.3773L53.957 22.3542C53.935 22.3351 53.9042 22.3087 53.8648 22.2753C53.7861 22.2086 53.6728 22.1144 53.526 21.9966C53.2326 21.761 52.805 21.4308 52.2521 21.0376C51.147 20.2517 49.5367 19.2113 47.4918 18.1726C43.4064 16.0975 37.5475 14.01 30.5 14.01C23.4526 14.01 17.5936 16.0975 13.5082 18.1726C11.4633 19.2113 9.85301 20.2517 8.74792 21.0376C8.19501 21.4308 7.76744 21.761 7.47402 21.9966C7.32727 22.1144 7.21396 22.2086 7.1352 22.2753C7.09582 22.3087 7.06506 22.3351 7.04306 22.3542L7.01665 22.3773L7.0084 22.3845L7.00439 22.3881L7.00347 22.3889Z" fill="#008558"/>
<path fill-rule="evenodd" clip-rule="evenodd" d="M13.0726 28.8307L13.0397 28.8577C12.4033 29.388 12.3173 30.3339 12.8477 30.9703C13.3778 31.6065 14.3231 31.6926 14.9595 31.163L14.9659 31.1577C14.9741 31.1511 14.9885 31.1395 15.009 31.1232C15.0501 31.0906 15.1157 31.0393 15.205 30.9721C15.3837 30.8377 15.6568 30.6395 16.018 30.3987C16.741 29.9167 17.8129 29.2664 19.1824 28.6143C21.9252 27.3082 25.8284 26.01 30.5 26.01C35.1716 26.01 39.0749 27.3082 41.8176 28.6143C43.1871 29.2664 44.259 29.9167 44.982 30.3987C45.3432 30.6395 45.6164 30.8377 45.795 30.9721C45.8843 31.0393 45.9499 31.0906 45.991 31.1232C46.0115 31.1395 46.0259 31.1511 46.0341 31.1577L46.0397 31.1623L46.0406 31.163L46.0416 31.1639C46.678 31.6925 47.6225 31.6061 48.1523 30.9703C48.6827 30.3339 48.5967 29.388 47.9603 28.8577L47.9594 28.8569L47.9557 28.8539L47.9488 28.8481L47.9275 28.8307C47.9101 28.8165 47.8862 28.7973 47.856 28.7733C47.7955 28.7253 47.7097 28.6584 47.5991 28.5752C47.3782 28.4089 47.0584 28.1774 46.6461 27.9026C45.8223 27.3533 44.6254 26.6286 43.1074 25.9057C40.0752 24.4618 35.7284 23.01 30.5 23.01C25.2716 23.01 20.9249 24.4618 17.8926 25.9057C16.3746 26.6286 15.1777 27.3533 14.3539 27.9026C13.9417 28.1774 13.6218 28.4089 13.4009 28.5752C13.2904 28.6584 13.2045 28.7253 13.1441 28.7733C13.1138 28.7973 13.09 28.8165 13.0726 28.8307L13.0513 28.8481L13.0443 28.8539L13.0406 28.8569L13.0726 28.8307Z" fill="#008558"/>
<path fill-rule="evenodd" clip-rule="evenodd" d="M22.456 37.6659C21.818 38.1936 20.8729 38.1045 20.3448 37.4668C19.8164 36.8287 19.909 35.8799 20.5471 35.3515L20.5441 35.354L20.5451 35.3532L20.5471 35.3515L20.5526 35.347L20.5674 35.335C20.5791 35.3256 20.5943 35.3134 20.6131 35.2986C20.6506 35.269 20.7023 35.2289 20.7678 35.18C20.8986 35.0821 21.0847 34.9483 21.3224 34.7908C21.7973 34.4762 22.4823 34.0642 23.3488 33.6542C25.078 32.8358 27.5625 32.01 30.556 32.01C34.2241 32.01 37.1294 33.2496 38.8246 34.2024C38.9859 34.2931 39.1368 34.3815 39.2769 34.4663C39.9856 34.8954 40.2122 35.8177 39.7831 36.5264C39.354 37.235 38.4317 37.4616 37.7231 37.0326C37.6097 36.9639 37.4867 36.8919 37.3546 36.8176C35.9451 36.0253 33.5498 35.01 30.556 35.01C28.1158 35.01 26.0724 35.6842 24.632 36.3658C23.9137 36.7058 23.3535 37.0438 22.9794 37.2917C22.7927 37.4154 22.6533 37.516 22.5648 37.5822C22.5205 37.6153 22.4891 37.6397 22.471 37.6541L22.4537 37.6678L22.456 37.6659Z" fill="#008558"/>
</svg>